<svg width="48" height="48" viewBox="0 0 48 48" fill="none" xmlns="http://www.w3.org/2000/svg">
  <rect width="48" height="48" rx="12" fill="url(#midas-gradient)"/>
  <g filter="url(#glow)">
    <path d="M24 12c6.627 0 12 5.373 12 12s-5.373 12-12 12-12-5.373-12-12 5.373-12 12-12z" fill="#00d2be"/>
    <path d="M24 18c3.313 0 6 2.687 6 6s-2.687 6-6 6-6-2.687-6-6 2.687-6 6-6z" fill="#0a3d5c"/>
    <path d="M24 14c5.523 0 10 4.477 10 10s-4.477 10-10 10-10-4.477-10-10 4.477-10 10-10zm0 2c-4.418 0-8 3.582-8 8s3.582 8 8 8 8-3.582 8-8-3.582-8-8-8z" fill="#fff" fill-opacity="0.15"/>
    <path d="M24 24l6-6" stroke="#fff" stroke-width="2" stroke-linecap="round"/>
    <circle cx="24" cy="24" r="2" fill="#fff"/>
  </g>
  <defs>
    <linearGradient id="midas-gradient" x1="0" y1="0" x2="48" y2="48" gradientUnits="userSpaceOnUse">
      <stop stop-color="#00d2be"/>
      <stop offset="1" stop-color="#0a3d5c"/>
    </linearGradient>
    <filter id="glow" x="0" y="0" width="48" height="48" filterUnits="userSpaceOnUse">
      <feDropShadow dx="0" dy="0" stdDeviation="4" flood-color="#00d2be" flood-opacity="0.5"/>
    </filter>
  </defs>
</svg>
